<mxfile host="app.diagrams.net" modified="2022-09-06T18:30:48.416Z" agent="5.0 (Windows NT 10.0; Win64; x64) AppleWebKit/537.36 (KHTML, like Gecko) Chrome/105.0.0.0 Safari/537.36" etag="GvdZVUdQA5fYvn-AyUjE" version="20.2.4" type="github">
  <diagram id="vQZW4OZkiL1XJwjymWI4" name="Página-1">
    <mxGraphModel dx="1384" dy="785" grid="1" gridSize="5" guides="1" tooltips="1" connect="1" arrows="1" fold="1" page="1" pageScale="1" pageWidth="827" pageHeight="1169" math="0" shadow="0">
      <root>
        <mxCell id="0" />
        <mxCell id="1" parent="0" />
        <mxCell id="dtLGfvdLKiji24awXUGy-7" value="Locais" style="swimlane;fontStyle=1;align=center;verticalAlign=top;childLayout=stackLayout;horizontal=1;startSize=26;horizontalStack=0;resizeParent=1;resizeParentMax=0;resizeLast=0;collapsible=1;marginBottom=0;" parent="1" vertex="1">
          <mxGeometry x="411" y="23" width="195" height="130" as="geometry" />
        </mxCell>
        <mxCell id="dtLGfvdLKiji24awXUGy-8" value="- Local de armazenamento: String&#xa;- Compartimento: String" style="text;strokeColor=none;fillColor=none;align=left;verticalAlign=top;spacingLeft=4;spacingRight=4;overflow=hidden;rotatable=0;points=[[0,0.5],[1,0.5]];portConstraint=eastwest;" parent="dtLGfvdLKiji24awXUGy-7" vertex="1">
          <mxGeometry y="26" width="195" height="44" as="geometry" />
        </mxCell>
        <mxCell id="dtLGfvdLKiji24awXUGy-9" value="" style="line;strokeWidth=1;fillColor=none;align=left;verticalAlign=middle;spacingTop=-1;spacingLeft=3;spacingRight=3;rotatable=0;labelPosition=right;points=[];portConstraint=eastwest;" parent="dtLGfvdLKiji24awXUGy-7" vertex="1">
          <mxGeometry y="70" width="195" height="8" as="geometry" />
        </mxCell>
        <mxCell id="dtLGfvdLKiji24awXUGy-10" value="+ Adicionar(Locais local)&#xa;+ Alterar(Locais local)" style="text;strokeColor=none;fillColor=none;align=left;verticalAlign=top;spacingLeft=4;spacingRight=4;overflow=hidden;rotatable=0;points=[[0,0.5],[1,0.5]];portConstraint=eastwest;" parent="dtLGfvdLKiji24awXUGy-7" vertex="1">
          <mxGeometry y="78" width="195" height="52" as="geometry" />
        </mxCell>
        <mxCell id="dtLGfvdLKiji24awXUGy-12" value="Clientes" style="swimlane;fontStyle=1;align=center;verticalAlign=top;childLayout=stackLayout;horizontal=1;startSize=26;horizontalStack=0;resizeParent=1;resizeParentMax=0;resizeLast=0;collapsible=1;marginBottom=0;" parent="1" vertex="1">
          <mxGeometry x="220" y="213" width="180" height="135" as="geometry" />
        </mxCell>
        <mxCell id="dtLGfvdLKiji24awXUGy-13" value="- Cpf: int" style="text;strokeColor=none;fillColor=none;align=left;verticalAlign=top;spacingLeft=4;spacingRight=4;overflow=hidden;rotatable=0;points=[[0,0.5],[1,0.5]];portConstraint=eastwest;" parent="dtLGfvdLKiji24awXUGy-12" vertex="1">
          <mxGeometry y="26" width="180" height="34" as="geometry" />
        </mxCell>
        <mxCell id="dtLGfvdLKiji24awXUGy-14" value="" style="line;strokeWidth=1;fillColor=none;align=left;verticalAlign=middle;spacingTop=-1;spacingLeft=3;spacingRight=3;rotatable=0;labelPosition=right;points=[];portConstraint=eastwest;" parent="dtLGfvdLKiji24awXUGy-12" vertex="1">
          <mxGeometry y="60" width="180" height="8" as="geometry" />
        </mxCell>
        <mxCell id="dtLGfvdLKiji24awXUGy-15" value="+ Compra(Vendas venda)&#xa;+ Cadastrar(Responsavel resp)&#xa;+ Alterar(Responsavel resp)" style="text;strokeColor=none;fillColor=none;align=left;verticalAlign=top;spacingLeft=4;spacingRight=4;overflow=hidden;rotatable=0;points=[[0,0.5],[1,0.5]];portConstraint=eastwest;" parent="dtLGfvdLKiji24awXUGy-12" vertex="1">
          <mxGeometry y="68" width="180" height="67" as="geometry" />
        </mxCell>
        <mxCell id="dtLGfvdLKiji24awXUGy-20" value="Equipamentos" style="swimlane;fontStyle=1;align=center;verticalAlign=top;childLayout=stackLayout;horizontal=1;startSize=26;horizontalStack=0;resizeParent=1;resizeParentMax=0;resizeLast=0;collapsible=1;marginBottom=0;" parent="1" vertex="1">
          <mxGeometry x="620" y="23" width="185" height="250" as="geometry" />
        </mxCell>
        <mxCell id="dtLGfvdLKiji24awXUGy-21" value="- Nome: String&#xa;- Numero de serie: int&#xa;- Preço: double&#xa;- Quantidade: int&#xa;- Local: String&#xa;- Responsável: String&#xa;- Ativo: boolean&#xa;" style="text;strokeColor=none;fillColor=none;align=left;verticalAlign=top;spacingLeft=4;spacingRight=4;overflow=hidden;rotatable=0;points=[[0,0.5],[1,0.5]];portConstraint=eastwest;" parent="dtLGfvdLKiji24awXUGy-20" vertex="1">
          <mxGeometry y="26" width="185" height="114" as="geometry" />
        </mxCell>
        <mxCell id="dtLGfvdLKiji24awXUGy-22" value="" style="line;strokeWidth=1;fillColor=none;align=left;verticalAlign=middle;spacingTop=-1;spacingLeft=3;spacingRight=3;rotatable=0;labelPosition=right;points=[];portConstraint=eastwest;" parent="dtLGfvdLKiji24awXUGy-20" vertex="1">
          <mxGeometry y="140" width="185" height="8" as="geometry" />
        </mxCell>
        <mxCell id="dtLGfvdLKiji24awXUGy-23" value="+ GetBySerialNumber(int serial)&#xa;+ GetByName(String name)&#xa;+ GetByLocale(String local)&#xa;+ GetByResponsible(String resp)&#xa;+ Add(Equipamentos equi)&#xa;+ Update(Equipamentos equi)&#xa;" style="text;strokeColor=none;fillColor=none;align=left;verticalAlign=top;spacingLeft=4;spacingRight=4;overflow=hidden;rotatable=0;points=[[0,0.5],[1,0.5]];portConstraint=eastwest;" parent="dtLGfvdLKiji24awXUGy-20" vertex="1">
          <mxGeometry y="148" width="185" height="102" as="geometry" />
        </mxCell>
        <mxCell id="dtLGfvdLKiji24awXUGy-24" value="Responsavel" style="swimlane;fontStyle=1;align=center;verticalAlign=top;childLayout=stackLayout;horizontal=1;startSize=26;horizontalStack=0;resizeParent=1;resizeParentMax=0;resizeLast=0;collapsible=1;marginBottom=0;" parent="1" vertex="1">
          <mxGeometry x="15" y="213" width="180" height="135" as="geometry" />
        </mxCell>
        <mxCell id="dtLGfvdLKiji24awXUGy-25" value="- Telefone: int" style="text;strokeColor=none;fillColor=none;align=left;verticalAlign=top;spacingLeft=4;spacingRight=4;overflow=hidden;rotatable=0;points=[[0,0.5],[1,0.5]];portConstraint=eastwest;" parent="dtLGfvdLKiji24awXUGy-24" vertex="1">
          <mxGeometry y="26" width="180" height="34" as="geometry" />
        </mxCell>
        <mxCell id="dtLGfvdLKiji24awXUGy-26" value="" style="line;strokeWidth=1;fillColor=none;align=left;verticalAlign=middle;spacingTop=-1;spacingLeft=3;spacingRight=3;rotatable=0;labelPosition=right;points=[];portConstraint=eastwest;" parent="dtLGfvdLKiji24awXUGy-24" vertex="1">
          <mxGeometry y="60" width="180" height="8" as="geometry" />
        </mxCell>
        <mxCell id="dtLGfvdLKiji24awXUGy-27" value="+ Gerar Relatório()&#xa;+ Vender(Vendas venda)&#xa;+ Cadastrar(Responsavel resp)&#xa;+ Alterar(Responsavel resp)" style="text;strokeColor=none;fillColor=none;align=left;verticalAlign=top;spacingLeft=4;spacingRight=4;overflow=hidden;rotatable=0;points=[[0,0.5],[1,0.5]];portConstraint=eastwest;" parent="dtLGfvdLKiji24awXUGy-24" vertex="1">
          <mxGeometry y="68" width="180" height="67" as="geometry" />
        </mxCell>
        <mxCell id="dtLGfvdLKiji24awXUGy-32" value="Vendas" style="swimlane;fontStyle=1;align=center;verticalAlign=top;childLayout=stackLayout;horizontal=1;startSize=26;horizontalStack=0;resizeParent=1;resizeParentMax=0;resizeLast=0;collapsible=1;marginBottom=0;" parent="1" vertex="1">
          <mxGeometry x="412" y="166" width="194" height="180" as="geometry" />
        </mxCell>
        <mxCell id="dtLGfvdLKiji24awXUGy-33" value="- Cliente: String&#xa;- Responsável: Responsavel&#xa;- Equipamento: Equipamentos&#xa;- Quatidade: int&#xa;- Datatime: Datatime" style="text;strokeColor=none;fillColor=none;align=left;verticalAlign=top;spacingLeft=4;spacingRight=4;overflow=hidden;rotatable=0;points=[[0,0.5],[1,0.5]];portConstraint=eastwest;" parent="dtLGfvdLKiji24awXUGy-32" vertex="1">
          <mxGeometry y="26" width="194" height="79" as="geometry" />
        </mxCell>
        <mxCell id="dtLGfvdLKiji24awXUGy-34" value="" style="line;strokeWidth=1;fillColor=none;align=left;verticalAlign=middle;spacingTop=-1;spacingLeft=3;spacingRight=3;rotatable=0;labelPosition=right;points=[];portConstraint=eastwest;" parent="dtLGfvdLKiji24awXUGy-32" vertex="1">
          <mxGeometry y="105" width="194" height="8" as="geometry" />
        </mxCell>
        <mxCell id="dtLGfvdLKiji24awXUGy-35" value="+ Cadastrar(Vendas venda)&#xa;+ Gerar nota(Vendas venda)&#xa;+ Alterar(Vendas venda)&#xa;+ Cancelar(Vendas venda)" style="text;strokeColor=none;fillColor=none;align=left;verticalAlign=top;spacingLeft=4;spacingRight=4;overflow=hidden;rotatable=0;points=[[0,0.5],[1,0.5]];portConstraint=eastwest;" parent="dtLGfvdLKiji24awXUGy-32" vertex="1">
          <mxGeometry y="113" width="194" height="67" as="geometry" />
        </mxCell>
        <mxCell id="dtLGfvdLKiji24awXUGy-36" value="Pessoas" style="swimlane;fontStyle=1;align=center;verticalAlign=top;childLayout=stackLayout;horizontal=1;startSize=25;horizontalStack=0;resizeParent=1;resizeParentMax=0;resizeLast=0;collapsible=1;marginBottom=0;" parent="1" vertex="1">
          <mxGeometry x="120" y="24" width="170" height="77" as="geometry" />
        </mxCell>
        <mxCell id="dtLGfvdLKiji24awXUGy-37" value="- Nome: String&#xa;- Endereço: String" style="text;strokeColor=none;fillColor=none;align=left;verticalAlign=top;spacingLeft=4;spacingRight=4;overflow=hidden;rotatable=0;points=[[0,0.5],[1,0.5]];portConstraint=eastwest;" parent="dtLGfvdLKiji24awXUGy-36" vertex="1">
          <mxGeometry y="25" width="170" height="44" as="geometry" />
        </mxCell>
        <mxCell id="dtLGfvdLKiji24awXUGy-38" value="" style="line;strokeWidth=1;fillColor=none;align=left;verticalAlign=middle;spacingTop=-1;spacingLeft=3;spacingRight=3;rotatable=0;labelPosition=right;points=[];portConstraint=eastwest;" parent="dtLGfvdLKiji24awXUGy-36" vertex="1">
          <mxGeometry y="69" width="170" height="8" as="geometry" />
        </mxCell>
        <mxCell id="xnF2MUeoURb5oZggPPuW-5" style="edgeStyle=orthogonalEdgeStyle;rounded=0;orthogonalLoop=1;jettySize=auto;html=1;exitX=1;exitY=0.5;exitDx=0;exitDy=0;" parent="1" edge="1">
          <mxGeometry relative="1" as="geometry">
            <mxPoint x="320" y="208" as="targetPoint" />
            <mxPoint x="290" y="122" as="sourcePoint" />
          </mxGeometry>
        </mxCell>
        <mxCell id="xnF2MUeoURb5oZggPPuW-6" style="edgeStyle=orthogonalEdgeStyle;rounded=0;orthogonalLoop=1;jettySize=auto;html=1;exitX=0;exitY=0.5;exitDx=0;exitDy=0;" parent="1" edge="1">
          <mxGeometry relative="1" as="geometry">
            <mxPoint x="95" y="208" as="targetPoint" />
            <mxPoint x="120" y="122" as="sourcePoint" />
          </mxGeometry>
        </mxCell>
        <mxCell id="xnF2MUeoURb5oZggPPuW-7" value="&lt;font style=&quot;font-size: 21px;&quot;&gt;DIAGRAMA DE CLASSES&lt;/font&gt;" style="rounded=1;whiteSpace=wrap;html=1;strokeWidth=1;opacity=90;" parent="1" vertex="1">
          <mxGeometry x="45" y="395" width="545" height="40" as="geometry" />
        </mxCell>
        <mxCell id="iCeZY42l8MoWFozbNO_Y-6" value="Datatime" style="swimlane;fontStyle=1;align=center;verticalAlign=top;childLayout=stackLayout;horizontal=1;startSize=26;horizontalStack=0;resizeParent=1;resizeParentMax=0;resizeLast=0;collapsible=1;marginBottom=0;" vertex="1" parent="1">
          <mxGeometry x="620" y="284" width="185" height="180" as="geometry" />
        </mxCell>
        <mxCell id="iCeZY42l8MoWFozbNO_Y-7" value="- Dia: int&#xa;- Mes: int&#xa;- Ano: int&#xa;- Hora: int&#xa;- Minuto: int&#xa;- Segundo: int" style="text;strokeColor=none;fillColor=none;align=left;verticalAlign=top;spacingLeft=4;spacingRight=4;overflow=hidden;rotatable=0;points=[[0,0.5],[1,0.5]];portConstraint=eastwest;" vertex="1" parent="iCeZY42l8MoWFozbNO_Y-6">
          <mxGeometry y="26" width="185" height="94" as="geometry" />
        </mxCell>
        <mxCell id="iCeZY42l8MoWFozbNO_Y-8" value="" style="line;strokeWidth=1;fillColor=none;align=left;verticalAlign=middle;spacingTop=-1;spacingLeft=3;spacingRight=3;rotatable=0;labelPosition=right;points=[];portConstraint=eastwest;" vertex="1" parent="iCeZY42l8MoWFozbNO_Y-6">
          <mxGeometry y="120" width="185" height="8" as="geometry" />
        </mxCell>
        <mxCell id="iCeZY42l8MoWFozbNO_Y-9" value="+ Adicionar(Datatime datatime)&#xa;+ Deletar(Datatime datatime)&#xa;+ Alterar(Datatime datatime)" style="text;strokeColor=none;fillColor=none;align=left;verticalAlign=top;spacingLeft=4;spacingRight=4;overflow=hidden;rotatable=0;points=[[0,0.5],[1,0.5]];portConstraint=eastwest;" vertex="1" parent="iCeZY42l8MoWFozbNO_Y-6">
          <mxGeometry y="128" width="185" height="52" as="geometry" />
        </mxCell>
      </root>
    </mxGraphModel>
  </diagram>
</mxfile>
